<svg xmlns="http://www.w3.org/2000/svg" version="1.1" xmlns:xlink="http://www.w3.org/1999/xlink" xmlns:svgjs="http://svgjs.dev/svgjs" width="1500" height="916" viewBox="0 0 1500 916"><g transform="matrix(1,0,0,1,-0.9090909090909918,-0.5551515151515218)"><svg viewBox="0 0 396 242" data-background-color="#000000" preserveAspectRatio="xMidYMid meet" height="916" width="1500" xmlns="http://www.w3.org/2000/svg" xmlns:xlink="http://www.w3.org/1999/xlink"><g id="tight-bounds" transform="matrix(1,0,0,1,0.2400000000000091,0.14666666666667538)"><svg viewBox="0 0 395.52 241.70666666666665" height="241.70666666666665" width="395.52"><g><svg viewBox="0 0 395.52 241.70666666666665" height="241.70666666666665" width="395.52"><g><svg viewBox="0 0 395.52 241.70666666666665" height="241.70666666666665" width="395.52"><g id="textblocktransform"><svg viewBox="0 0 395.52 241.70666666666665" height="241.70666666666665" width="395.52" id="textblock"><g><svg viewBox="0 0 395.52 241.70666666666665" height="241.70666666666665" width="395.52"><g><svg viewBox="0 0 395.52 241.70666666666665" height="241.70666666666665" width="395.52"><g transform="matrix(1,0,0,1,0,0)"><svg width="395.52" viewBox="2.88 -37.48 62.089999999999996 37.96" height="241.70666666666665" data-palette-color="url(#a334924d-b2ea-4119-9f5d-fc0d0edf8f19)"></svg></g></svg></g></svg></g></svg></g></svg></g><g></g></svg></g><defs></defs><mask id="714789ae-3f21-4b13-9c25-2aad61c67dc8"><g id="SvgjsG4786"><svg viewBox="0 0 395.52 241.70666666666665" height="241.70666666666665" width="395.52"><g><svg viewBox="0 0 395.52 241.70666666666665" height="241.70666666666665" width="395.52"><g><svg viewBox="0 0 395.52 241.70666666666665" height="241.70666666666665" width="395.52"><g id="SvgjsG4785"><svg viewBox="0 0 395.52 241.70666666666665" height="241.70666666666665" width="395.52" id="SvgjsSvg4784"><g><svg viewBox="0 0 395.52 241.70666666666665" height="241.70666666666665" width="395.52"><g><svg viewBox="0 0 395.52 241.70666666666665" height="241.70666666666665" width="395.52"><g transform="matrix(1,0,0,1,0,0)"><svg width="395.52" viewBox="2.88 -37.48 62.089999999999996 37.96" height="241.70666666666665" data-palette-color="url(#a334924d-b2ea-4119-9f5d-fc0d0edf8f19)"><path d="M19.3 0.48Q14.28 0.48 10.6-1.56 6.93-3.6 4.9-7.84 2.88-12.08 2.88-18.5L2.88-18.5Q2.88-24.93 4.91-29.16 6.95-33.4 10.64-35.44 14.33-37.48 19.3-37.48L19.3-37.48Q24.33-37.48 28.01-35.44 31.7-33.4 33.73-29.16 35.75-24.93 35.75-18.5L35.75-18.5Q35.75-12.1 33.7-7.85 31.65-3.6 27.96-1.56 24.28 0.48 19.3 0.48L19.3 0.48ZM19.3-3.1Q25.05-3.1 28.25-6.76 31.45-10.43 31.45-18.38L31.45-18.38Q31.45-26.48 28.25-30.19 25.05-33.9 19.3-33.9L19.3-33.9Q13.55-33.9 10.36-30.24 7.18-26.58 7.18-18.63L7.18-18.63Q7.18-3.1 19.3-3.1L19.3-3.1ZM51.1 0.48Q48.65 0.48 46.09 0.08 43.52-0.33 41.27-1.1L41.27-1.1 41.27-4.67Q43.7-3.85 46.25-3.45 48.8-3.05 51.12-3.05L51.12-3.05Q60.77-3.05 60.77-9.85L60.77-9.85Q60.77-11.73 59.99-12.96 59.2-14.2 57.5-15.04 55.8-15.88 52.87-16.53L52.87-16.53 50.72-17Q45.57-18.15 43.11-20.61 40.65-23.08 40.65-27.1L40.65-27.1Q40.65-30.33 42.2-32.65 43.75-34.98 46.84-36.23 49.92-37.48 54.47-37.48L54.47-37.48Q59.2-37.48 63.3-36.25L63.3-36.25 63.3-32.68Q59.12-33.95 54.57-33.95L54.57-33.95Q49.65-33.95 47.25-32.24 44.85-30.53 44.85-27.33L44.85-27.33Q44.85-25.48 45.55-24.25 46.25-23.03 47.82-22.18 49.4-21.33 52.1-20.73L52.1-20.73 54.25-20.23Q59.85-19 62.41-16.57 64.97-14.15 64.97-10.1L64.97-10.1Q64.97-6.75 63.35-4.38 61.72-2 58.61-0.76 55.5 0.48 51.1 0.48L51.1 0.48Z" opacity="1" transform="matrix(1,0,0,1,0,0)" fill="white" class="wordmark-text-0" id="SvgjsPath4783"></path></svg></g></svg></g></svg></g></svg></g></svg></g><g></g></svg></g><defs><mask></mask></defs></svg><rect width="395.52" height="241.70666666666665" fill="black" stroke="none" visibility="hidden"></rect></g></mask><linearGradient x1="0" x2="1" y1="0.548" y2="0.55" id="a334924d-b2ea-4119-9f5d-fc0d0edf8f19"><stop stop-color="#ff6cab" offset="0"></stop><stop stop-color="#7366ff" offset="1"></stop></linearGradient><rect width="395.52" height="241.70666666666665" fill="url(#a334924d-b2ea-4119-9f5d-fc0d0edf8f19)" mask="url(#714789ae-3f21-4b13-9c25-2aad61c67dc8)" data-fill-palette-color="primary"></rect></svg><rect width="395.52" height="241.70666666666665" fill="none" stroke="none" visibility="hidden"></rect></g></svg></g></svg>